HIERARCHY
ROOT Hips
{
	OFFSET 0.000000 0.000000 0.000000 
	CHANNELS 6 Xposition Yposition Zposition Zrotation Xrotation Yrotation
	JOINT Spine
	{
		OFFSET -0.000000 8.285670 0.000000 
		CHANNELS 3 Zrotation Xrotation Yrotation
		JOINT Spine1
		{
			OFFSET -0.000000 20.280901 0.000000 
			CHANNELS 3 Zrotation Xrotation Yrotation
			JOINT Neck
			{
				OFFSET -0.000000 22.301800 0.000000 
				CHANNELS 3 Zrotation Xrotation Yrotation
				JOINT Head
				{
					OFFSET -0.000000 15.661900 2.020890 
					CHANNELS 3 Zrotation Xrotation Yrotation
					End Site
					{
						OFFSET -0.000000 20.208887 0.000000 
					}
				}
			}
			JOINT LeftShoulder
			{
				OFFSET 3.887530 15.503099 -0.416373 
				CHANNELS 3 Zrotation Xrotation Yrotation
				JOINT LeftArm
				{
					OFFSET 20.767099 0.000000 0.000000 
					CHANNELS 3 Zrotation Xrotation Yrotation
					JOINT LeftForeArm
					{
						OFFSET 26.608500 0.000000 0.000000 
						CHANNELS 3 Zrotation Xrotation Yrotation
						JOINT LeftHand
						{
							OFFSET 25.563202 0.000000 0.000000 
							CHANNELS 3 Zrotation Xrotation Yrotation
							End Site
							{
								OFFSET 15.156667 0.000000 0.000000 
							}
						}
					}
				}
			}
			JOINT RightShoulder
			{
				OFFSET -4.190880 15.503099 -0.416373 
				CHANNELS 3 Zrotation Xrotation Yrotation
				JOINT RightArm
				{
					OFFSET -20.767099 0.000000 0.000000 
					CHANNELS 3 Zrotation Xrotation Yrotation
					JOINT RightForeArm
					{
						OFFSET -26.608500 0.000000 0.000000 
						CHANNELS 3 Zrotation Xrotation Yrotation
						JOINT RightHand
						{
							OFFSET -25.563202 0.000000 0.000000 
							CHANNELS 3 Zrotation Xrotation Yrotation
							End Site
							{
								OFFSET -15.156667 0.000000 0.000000 
							}
						}
					}
				}
			}
		}
	}
	JOINT LeftUpLeg
	{
		OFFSET 10.104500 0.000000 0.000000 
		CHANNELS 3 Zrotation Xrotation Yrotation
		JOINT LeftLeg
		{
			OFFSET -0.000000 -50.743301 0.000000 
			CHANNELS 3 Zrotation Xrotation Yrotation
			JOINT LeftFoot
			{
				OFFSET -0.000000 -35.579197 0.000000 
				CHANNELS 3 Zrotation Xrotation Yrotation
				JOINT LeftToeBase
				{
					OFFSET -0.000000 -6.567910 15.156700 
					CHANNELS 3 Zrotation Xrotation Yrotation
					End Site
					{
						OFFSET -0.000000 0.000000 4.041778 
					}
				}
			}
		}
	}
	JOINT RightUpLeg
	{
		OFFSET -10.104500 0.000000 0.000000 
		CHANNELS 3 Zrotation Xrotation Yrotation
		JOINT RightLeg
		{
			OFFSET -0.000000 -50.743301 0.000000 
			CHANNELS 3 Zrotation Xrotation Yrotation
			JOINT RightFoot
			{
				OFFSET -0.000000 -35.579197 0.000000 
				CHANNELS 3 Zrotation Xrotation Yrotation
				JOINT RightToeBase
				{
					OFFSET -0.000000 -6.567910 15.156700 
					CHANNELS 3 Zrotation Xrotation Yrotation
					End Site
					{
						OFFSET -0.000000 0.000000 4.041778 
					}
				}
			}
		}
	}
}
MOTION
Frames: 9
Frame Time: 0.010000
-0.018019 90.172760 -0.075285 -5.128549 6.622934 8.789748 0.197932 -9.321141 -2.781076 7.098145 6.641563 -1.343827 -3.317966 -6.851073 -2.563856 5.224969 14.984477 -4.225378 -2.537908 3.780163 -2.453538 -71.142174 37.093163 -15.677615 5.794021 1.737631 -14.449992 -21.414171 1.591690 4.666046 -13.119643 2.351709 -0.457438 69.192886 46.794949 18.667374 -3.103379 -0.803785 18.443413 18.164600 0.321629 3.887924 12.120152 -14.915064 2.534002 4.318727 30.379246 -60.650482 33.395027 -17.062412 61.492779 0.000000 0.000000 0.000000 -5.861209 -9.315351 -15.775280 4.453597 18.260092 -11.459727 6.540328 -25.422905 9.831591 0.000000 0.000000 0.000000 
-0.016406 90.172432 -0.076717 -5.128819 6.622005 8.788813 0.201490 -9.330708 -2.779737 7.092587 6.655984 -1.344075 -3.317651 -6.851641 -2.563667 5.224101 14.983600 -4.224887 -2.539615 3.784532 -2.450931 -71.134171 37.090950 -15.685366 5.795785 1.738042 -14.447886 -21.421246 1.591972 4.665921 -13.117626 2.348656 -0.456090 69.199699 46.793865 18.659924 -3.101944 -0.806982 18.449995 18.151924 0.317857 3.888767 12.120000 -14.914512 2.534679 4.318213 30.379595 -60.653084 33.397926 -17.065439 61.496410 0.000000 0.000000 0.000000 -5.857937 -9.309943 -15.784410 4.443501 18.246193 -11.449115 6.544181 -25.418648 9.835665 0.000000 0.000000 0.000000 
-0.014795 90.172081 -0.078217 -5.128857 6.620985 8.787877 0.205080 -9.340255 -2.778396 7.086844 6.670588 -1.344245 -3.317700 -6.852402 -2.563180 5.223886 14.982615 -4.224264 -2.541225 3.789107 -2.448174 -71.126434 37.088474 -15.692795 5.797840 1.738743 -14.445903 -21.427868 1.592539 4.665846 -13.115387 2.345833 -0.455361 69.205406 46.792675 18.653694 -3.099747 -0.809858 18.456318 18.139196 0.314547 3.889711 12.119567 -14.913961 2.535326 4.317789 30.380081 -60.655136 33.400124 -17.067936 61.499100 0.000000 0.000000 0.000000 -5.855467 -9.305032 -15.792372 4.434912 18.233961 -11.439665 6.546874 -25.414944 9.839164 0.000000 0.000000 0.000000 
-0.013186 90.171692 -0.079844 -5.128631 6.619828 8.786929 0.208490 -9.349434 -2.776986 7.081417 6.684777 -1.344451 -3.318029 -6.853454 -2.562292 5.223936 14.981829 -4.223309 -2.542870 3.794033 -2.445216 -71.119057 37.085938 -15.699987 5.800089 1.739628 -14.443934 -21.433720 1.593377 4.665742 -13.113405 2.343294 -0.455278 69.210182 46.791496 18.648670 -3.096759 -0.812243 18.462275 18.126509 0.311516 3.890874 12.118795 -14.913532 2.536118 4.317755 30.380873 -60.656723 33.401733 -17.070442 61.500843 0.000000 0.000000 0.000000 -5.853902 -9.300928 -15.798961 4.428063 18.223904 -11.432112 6.548676 -25.411871 9.842360 0.000000 0.000000 0.000000 
-0.011580 90.171227 -0.081585 -5.128149 6.618280 8.785574 0.211791 -9.357805 -2.775614 7.076105 6.698430 -1.344615 -3.318699 -6.854800 -2.560917 5.224785 14.981103 -4.222067 -2.544343 3.798865 -2.442057 -71.112480 37.083691 -15.706425 5.802550 1.740533 -14.441921 -21.438715 1.594361 4.665473 -13.111427 2.340950 -0.455854 69.214020 46.790192 18.644745 -3.092873 -0.814127 18.467804 18.114126 0.309006 3.892243 12.117692 -14.912961 2.536918 4.318009 30.382114 -60.658054 33.403095 -17.073191 61.502094 0.000000 0.000000 0.000000 -5.853374 -9.297384 -15.804044 4.423349 18.216269 -11.426634 6.549502 -25.409622 9.844995 0.000000 0.000000 0.000000 
-0.009993 90.170685 -0.083489 -5.127464 6.616423 8.784336 0.215105 -9.365372 -2.774242 7.070770 6.711433 -1.344750 -3.319449 -6.856616 -2.559095 5.226388 14.980628 -4.220590 -2.545353 3.803814 -2.438725 -71.106613 37.081814 -15.712529 5.804883 1.741477 -14.439822 -21.442478 1.595391 4.665037 -13.109591 2.338402 -0.457127 69.217560 46.788509 18.641317 -3.087873 -0.815187 18.472965 18.102163 0.307108 3.893887 12.116331 -14.912438 2.537899 4.318749 30.384035 -60.659409 33.404396 -17.076651 61.502983 0.000000 0.000000 0.000000 -5.853929 -9.294550 -15.807470 4.421238 18.211197 -11.423162 6.549105 -25.408333 9.846451 0.000000 0.000000 0.000000 
-0.008446 90.170059 -0.085548 -5.126631 6.614085 8.783094 0.218526 -9.371976 -2.772860 7.065254 6.723838 -1.344899 -3.319706 -6.859034 -2.556950 5.227960 14.980318 -4.218718 -2.545727 3.808483 -2.435253 -71.101707 37.080406 -15.717962 5.806947 1.742352 -14.437617 -21.444992 1.596449 4.664421 -13.107504 2.335959 -0.458990 69.220222 46.786255 18.638796 -3.081642 -0.815546 18.477814 18.090551 0.305894 3.895862 12.114826 -14.911881 2.538886 4.319812 30.386917 -60.661156 33.406021 -17.080872 61.504158 0.000000 0.000000 0.000000 -5.855368 -9.292289 -15.809402 4.421327 18.208611 -11.422146 6.548031 -25.407766 9.847461 0.000000 0.000000 0.000000 
-0.006951 90.169334 -0.087752 -5.125691 6.611241 8.782145 0.221962 -9.377487 -2.771607 7.059769 6.735439 -1.344941 -3.320155 -6.862028 -2.554598 5.230429 14.980363 -4.216876 -2.545604 3.812973 -2.431651 -71.097740 37.079662 -15.722785 5.808886 1.743095 -14.435180 -21.446405 1.597429 4.663507 -13.105665 2.333236 -0.461382 69.223038 46.783611 18.636345 -3.074330 -0.815100 18.482330 18.079334 0.305228 3.898318 12.113108 -14.911211 2.540068 4.321534 30.390488 -60.663509 33.407902 -17.085804 61.505489 0.000000 0.000000 0.000000 -5.857744 -9.290483 -15.809898 4.423842 18.208427 -11.423160 6.546079 -25.408134 9.847528 0.000000 0.000000 0.000000 
-0.005536 90.168533 -0.090096 -5.124675 6.607973 8.780930 0.225387 -9.381997 -2.770490 7.054404 6.746344 -1.345001 -3.320487 -6.865686 -2.552217 5.232968 14.980693 -4.214977 -2.545119 3.817350 -2.427816 -71.094597 37.079342 -15.727137 5.810579 1.743787 -14.432644 -21.446732 1.598385 4.662499 -13.103798 2.330455 -0.464045 69.225655 46.780273 18.634008 -3.066029 -0.813888 18.486876 18.068569 0.305166 3.901153 12.111357 -14.910461 2.541197 4.323482 30.394917 -60.666527 33.410168 -17.091150 61.507301 0.000000 0.000000 0.000000 -5.860863 -9.289014 -15.809101 4.428496 18.210230 -11.425942 6.543375 -25.409220 9.846624 0.000000 0.000000 0.000000 
